<svg width="20" height="20" viewBox="0 0 20 20" fill="none" xmlns="http://www.w3.org/2000/svg">
<path d="M17.3793 13.5886V16.515C17.3794 16.7245 17.3001 16.9263 17.1572 17.0796C17.0144 17.2328 16.8187 17.3262 16.6097 17.3409C16.248 17.3657 15.9526 17.379 15.7242 17.379C8.41079 17.379 2.48279 11.451 2.48279 4.13759C2.48279 3.90918 2.4952 3.61373 2.52086 3.25208C2.53552 3.04307 2.62892 2.8474 2.78221 2.70455C2.9355 2.56171 3.13726 2.48233 3.34679 2.48242H6.27313C6.37579 2.48232 6.47481 2.52037 6.55098 2.5892C6.62714 2.65802 6.67501 2.7527 6.68527 2.85484C6.70431 3.04518 6.72169 3.19663 6.73824 3.31166C6.90271 4.45946 7.23976 5.5758 7.73796 6.62284C7.81658 6.78835 7.76527 6.98615 7.61631 7.09208L5.83037 8.36822C6.92234 10.9126 8.95 12.9403 11.4944 14.0322L12.7689 12.2496C12.821 12.1768 12.897 12.1245 12.9836 12.102C13.0703 12.0795 13.1621 12.0881 13.2431 12.1263C14.29 12.6236 15.406 12.9598 16.5534 13.1235C16.6684 13.1401 16.8199 13.1583 17.0086 13.1765C17.1106 13.1869 17.205 13.2349 17.2737 13.311C17.3424 13.3872 17.3795 13.4861 17.3793 13.5886Z" fill="#F8F8F8"/>
</svg>
