<svg width="18" height="18" viewBox="0 0 18 18" fill="none" xmlns="http://www.w3.org/2000/svg">
<g clip-path="url(#clip0_507_58)">
<path d="M3.00042 4.81062L0.567749 2.37912L1.62918 1.31787L4.0611 3.75012H15.4946C15.6115 3.75011 15.7268 3.77743 15.8313 3.8299C15.9358 3.88236 16.0265 3.95852 16.0963 4.05229C16.1662 4.14607 16.2131 4.25486 16.2334 4.36999C16.2537 4.48511 16.2467 4.60339 16.2132 4.71537L14.4129 10.7154C14.3666 10.8699 14.2716 11.0054 14.1422 11.1018C14.0127 11.1981 13.8556 11.2501 13.6943 11.2501H4.50068V12.7501H12.7521V14.2501H3.75055C3.5516 14.2501 3.3608 14.1711 3.22013 14.0305C3.07945 13.8898 3.00042 13.699 3.00042 13.5001V4.81062ZM4.12561 17.2501C3.82719 17.2501 3.54099 17.1316 3.32998 16.9206C3.11896 16.7096 3.00042 16.4235 3.00042 16.1251C3.00042 15.8268 3.11896 15.5406 3.32998 15.3296C3.54099 15.1186 3.82719 15.0001 4.12561 15.0001C4.42403 15.0001 4.71023 15.1186 4.92124 15.3296C5.13226 15.5406 5.25081 15.8268 5.25081 16.1251C5.25081 16.4235 5.13226 16.7096 4.92124 16.9206C4.71023 17.1316 4.42403 17.2501 4.12561 17.2501ZM13.1272 17.2501C12.8287 17.2501 12.5425 17.1316 12.3315 16.9206C12.1205 16.7096 12.002 16.4235 12.002 16.1251C12.002 15.8268 12.1205 15.5406 12.3315 15.3296C12.5425 15.1186 12.8287 15.0001 13.1272 15.0001C13.4256 15.0001 13.7118 15.1186 13.9228 15.3296C14.1338 15.5406 14.2524 15.8268 14.2524 16.1251C14.2524 16.4235 14.1338 16.7096 13.9228 16.9206C13.7118 17.1316 13.4256 17.2501 13.1272 17.2501Z" fill="white"/>
</g>
<defs>
<clipPath id="clip0_507_58">
<rect width="18.0031" height="18" fill="white"/>
</clipPath>
</defs>
</svg>
