<svg width="36" height="37" viewBox="0 0 36 37" fill="none" xmlns="http://www.w3.org/2000/svg">
<g clip-path="url(#clip0_512_223)">
<path d="M29.6779 6.76436C27.4542 5.72442 25.0698 4.95825 22.5766 4.51942C22.5313 4.51095 22.4859 4.53211 22.4625 4.57445C22.1558 5.13039 21.8161 5.85565 21.5783 6.42569C18.8967 6.01651 16.2289 6.01651 13.6024 6.42569C13.3644 5.84297 13.0124 5.13039 12.7044 4.57445C12.681 4.53353 12.6356 4.51237 12.5902 4.51942C10.0984 4.95685 7.71393 5.72302 5.48892 6.76436C5.46966 6.77282 5.45316 6.78695 5.4422 6.80529C0.919291 13.6925 -0.319724 20.4104 0.288095 27.045C0.290845 27.0775 0.308722 27.1085 0.333475 27.1283C3.31756 29.362 6.20816 30.7179 9.04508 31.6167C9.09048 31.6309 9.13859 31.614 9.16748 31.5758C9.83856 30.6417 10.4368 29.6569 10.9497 28.6211C10.9799 28.5604 10.951 28.4884 10.8892 28.4645C9.94031 28.0977 9.03682 27.6503 8.16772 27.1424C8.09898 27.1015 8.09347 27.0013 8.15672 26.9533C8.3396 26.8136 8.52255 26.6683 8.69719 26.5216C8.72878 26.4948 8.77281 26.4891 8.80995 26.5059C14.5196 29.163 20.7008 29.163 26.3432 26.5059C26.3803 26.4877 26.4243 26.4933 26.4573 26.5201C26.6319 26.6669 26.8149 26.8136 26.9991 26.9533C27.0623 27.0013 27.0583 27.1015 26.9895 27.1424C26.1204 27.6603 25.2169 28.0977 24.2667 28.4631C24.2049 28.4871 24.1773 28.5604 24.2075 28.6211C24.7315 29.6554 25.3297 30.6404 25.9884 31.5744C26.0158 31.614 26.0654 31.6309 26.1108 31.6167C28.9614 30.7179 31.852 29.362 34.8361 27.1283C34.8622 27.1085 34.8788 27.0789 34.8816 27.0465C35.609 19.376 33.6631 12.7133 29.7233 6.80669C29.7137 6.78695 29.6972 6.77282 29.6779 6.76436ZM11.8023 23.0053C10.0833 23.0053 8.66691 21.3967 8.66691 19.4212C8.66691 17.4458 10.0558 15.8373 11.8023 15.8373C13.5625 15.8373 14.9651 17.4599 14.9377 19.4212C14.9377 21.3967 13.5487 23.0053 11.8023 23.0053ZM23.3948 23.0053C21.6759 23.0053 20.2595 21.3967 20.2595 19.4212C20.2595 17.4458 21.6483 15.8373 23.3948 15.8373C25.155 15.8373 26.5576 17.4599 26.5301 19.4212C26.5301 21.3967 25.155 23.0053 23.3948 23.0053Z" fill="black"/>
</g>
<defs>
<clipPath id="clip0_512_223">
<rect width="34.8878" height="36.1388" fill="white" transform="translate(0.143921)"/>
</clipPath>
</defs>
</svg>
