<svg width="10" height="6" viewBox="0 0 10 6" fill="none" xmlns="http://www.w3.org/2000/svg">
<rect width="10" height="6" rx="1" fill="#D40303"/>
<path d="M3.641 4H2.231V1.78H3.641V2.23H2.582L2.717 2.104V2.665H3.536V3.091H2.717V3.676L2.582 3.55H3.641V4ZM3.91562 2.425C3.91562 2.291 3.95062 2.173 4.02062 2.071C4.09062 1.967 4.18662 1.886 4.30862 1.828C4.43262 1.768 4.57362 1.738 4.73162 1.738C4.89162 1.738 5.02962 1.766 5.14562 1.822C5.26162 1.878 5.35062 1.957 5.41262 2.059C5.47662 2.161 5.50862 2.282 5.50862 2.422H5.02562C5.02562 2.344 4.99862 2.283 4.94462 2.239C4.89062 2.193 4.81762 2.17 4.72562 2.17C4.62762 2.17 4.54862 2.191 4.48862 2.233C4.43062 2.275 4.40162 2.333 4.40162 2.407C4.40162 2.475 4.41962 2.527 4.45562 2.563C4.49162 2.599 4.54862 2.625 4.62662 2.641L4.95962 2.71C5.15762 2.75 5.30462 2.82 5.40062 2.92C5.49662 3.018 5.54462 3.155 5.54462 3.331C5.54462 3.473 5.50962 3.598 5.43962 3.706C5.36962 3.812 5.27062 3.894 5.14262 3.952C5.01662 4.01 4.86862 4.039 4.69862 4.039C4.53462 4.039 4.39062 4.011 4.26662 3.955C4.14462 3.899 4.04962 3.82 3.98162 3.718C3.91562 3.614 3.88262 3.493 3.88262 3.355H4.36562C4.36562 3.435 4.39462 3.497 4.45262 3.541C4.51062 3.585 4.59362 3.607 4.70162 3.607C4.81162 3.607 4.89862 3.587 4.96262 3.547C5.02662 3.505 5.05862 3.449 5.05862 3.379C5.05862 3.317 5.04262 3.269 5.01062 3.235C4.98062 3.201 4.92862 3.177 4.85462 3.163L4.51562 3.094C4.31762 3.054 4.16762 2.978 4.06562 2.866C3.96562 2.754 3.91562 2.607 3.91562 2.425ZM6.82674 4.036C6.60474 4.036 6.41274 3.99 6.25074 3.898C6.08874 3.804 5.96374 3.672 5.87574 3.502C5.78774 3.33 5.74374 3.127 5.74374 2.893C5.74374 2.661 5.78974 2.459 5.88174 2.287C5.97374 2.115 6.10274 1.982 6.26874 1.888C6.43474 1.792 6.62774 1.744 6.84774 1.744C7.03374 1.744 7.19874 1.778 7.34274 1.846C7.48874 1.912 7.60774 2.006 7.69974 2.128C7.79174 2.25 7.84874 2.394 7.87074 2.56H7.35774C7.32574 2.448 7.26374 2.362 7.17174 2.302C7.08174 2.242 6.96974 2.212 6.83574 2.212C6.71574 2.212 6.61174 2.239 6.52374 2.293C6.43774 2.347 6.37174 2.425 6.32574 2.527C6.27974 2.627 6.25674 2.748 6.25674 2.89C6.25674 3.028 6.27974 3.148 6.32574 3.25C6.37374 3.352 6.44074 3.431 6.52674 3.487C6.61474 3.541 6.71774 3.568 6.83574 3.568C6.97174 3.568 7.08674 3.537 7.18074 3.475C7.27674 3.411 7.33974 3.324 7.36974 3.214H7.87374C7.84774 3.378 7.78674 3.522 7.69074 3.646C7.59674 3.77 7.47574 3.866 7.32774 3.934C7.17974 4.002 7.01274 4.036 6.82674 4.036Z" fill="#191919"/>
</svg>
