<svg width="40" height="39" viewBox="0 0 40 39" fill="none" xmlns="http://www.w3.org/2000/svg">
<path d="M20 0C8.95161 0 0 8.72782 0 19.5C0 30.2722 8.95161 39 20 39C31.0484 39 40 30.2722 40 19.5C40 8.72782 31.0484 0 20 0ZM20 7.54839C23.9194 7.54839 27.0968 10.6464 27.0968 14.4677C27.0968 18.2891 23.9194 21.3871 20 21.3871C16.0806 21.3871 12.9032 18.2891 12.9032 14.4677C12.9032 10.6464 16.0806 7.54839 20 7.54839ZM20 34.5968C15.2661 34.5968 11.0242 32.5052 8.18548 29.2343C9.70161 26.4508 12.6694 24.5323 16.129 24.5323C16.3226 24.5323 16.5161 24.5637 16.7016 24.6187C17.75 24.949 18.8468 25.1613 20 25.1613C21.1532 25.1613 22.2581 24.949 23.2984 24.6187C23.4839 24.5637 23.6774 24.5323 23.871 24.5323C27.3306 24.5323 30.2984 26.4508 31.8145 29.2343C28.9758 32.5052 24.7339 34.5968 20 34.5968Z" fill="#F8F8F8"/>
</svg>
