<svg width="16" height="14" viewBox="0 0 16 14" fill="none" xmlns="http://www.w3.org/2000/svg">
<path d="M2.16529 0.21863C2.0144 0.0767577 1.81231 -0.00174508 1.60254 2.94422e-05C1.39277 0.00180397 1.19211 0.0837139 1.04377 0.228117C0.895439 0.372521 0.8113 0.567864 0.809477 0.772073C0.807654 0.976283 0.888294 1.17302 1.03403 1.31991L2.97333 3.20782C1.82927 4.04586 0.830817 5.19698 0.0843772 6.65186C0.0288875 6.75996 0 6.87915 0 7C0 7.12085 0.0288875 7.24004 0.0843772 7.34814C1.81087 10.7104 4.87663 12.4519 8 12.4519C9.24407 12.4519 10.4801 12.1754 11.6242 11.6302L13.8347 13.7814C13.9856 13.9232 14.1877 14.0017 14.3975 14C14.6072 13.9982 14.8079 13.9163 14.9562 13.7719C15.1046 13.6275 15.1887 13.4321 15.1905 13.2279C15.1923 13.0237 15.1117 12.827 14.966 12.6801L2.16529 0.21863ZM10.4113 10.4487C9.62729 10.747 8.81124 10.8942 8 10.8942C5.62467 10.8942 3.19814 9.63248 1.70366 7C2.3573 5.84809 3.19014 4.95944 4.11819 4.32312L5.83348 5.99296C5.61914 6.42907 5.54904 6.91918 5.63285 7.3957C5.71665 7.87223 5.95024 8.31172 6.30141 8.65358C6.65257 8.99544 7.10402 9.22284 7.59352 9.30442C8.08302 9.38601 8.58647 9.31777 9.03446 9.1091L10.4105 10.4487H10.4113ZM13.2419 8.47668C13.6283 8.04365 13.9827 7.5522 14.2963 7C12.8019 4.36752 10.3761 3.10579 8 3.10579C7.9104 3.10579 7.82079 3.10735 7.73119 3.11125L6.30311 1.72179C6.86097 1.60642 7.42969 1.54821 8 1.54811C11.1226 1.54811 14.1891 3.2896 15.9156 6.65186C15.9711 6.75996 16 6.87915 16 7C16 7.12085 15.9711 7.24004 15.9156 7.34814C15.5056 8.15478 14.9877 8.90508 14.3755 9.57952L13.2419 8.47668Z" fill="white"/>
</svg>
