<svg width="14" height="14" viewBox="0 0 14 14" fill="none" xmlns="http://www.w3.org/2000/svg">
<path d="M12.95 6.6502C12.6 6.1252 12.25 5.6002 11.8125 5.1627L10.85 6.1252C11.1125 6.3877 11.375 6.6502 11.55 7.0002C10.675 8.3127 9.1875 9.1877 7.6125 9.3627L6.3 10.6752C6.5625 10.6752 6.825 10.7627 7 10.7627C9.45 10.7627 11.725 9.4502 12.95 7.3502L13.125 7.0002L12.95 6.6502ZM10.7625 2.0127L9.1875 3.5877C8.4875 3.4127 7.7875 3.2377 7 3.2377C4.55 3.2377 2.275 4.5502 1.05 6.6502L0.875 7.0002L1.05 7.3502C1.575 8.2252 2.275 9.0127 3.15 9.6252L2.0125 10.7627L3.2375 11.9877L11.9875 3.2377L10.7625 2.0127ZM4.8125 6.5627C4.8125 7.0002 4.9 7.3502 5.075 7.6127L4.2 8.5752C3.5 8.2252 2.8875 7.7002 2.45 7.0002C3.2375 5.7752 4.4625 4.9877 5.8625 4.7252C5.25 5.0752 4.8125 5.7752 4.8125 6.5627Z" fill="#F8F8F8"/>
</svg>
