<svg width="35" height="37" viewBox="0 0 35 37" fill="none" xmlns="http://www.w3.org/2000/svg">
<g clip-path="url(#clip0_512_215)">
<path d="M17.4439 3.01172C21.3935 3.01172 21.8863 3.02678 23.4359 3.10207C24.9841 3.17735 26.038 3.42882 26.9654 3.80226C27.9248 4.18472 28.733 4.70271 29.5413 5.53842C30.2805 6.29116 30.8524 7.20169 31.2173 8.20667C31.5764 9.16585 31.8206 10.2591 31.8933 11.8627C31.9616 13.4679 31.9805 13.9783 31.9805 18.0696C31.9805 22.1608 31.966 22.6712 31.8933 24.2764C31.8206 25.8801 31.5764 26.9717 31.2173 27.9324C30.8535 28.938 30.2814 29.8487 29.5413 30.6007C28.8144 31.3661 27.9354 31.9585 26.9654 32.3368C26.0394 32.7088 24.9841 32.9618 23.4359 33.037C21.8863 33.1078 21.3935 33.1274 17.4439 33.1274C13.4943 33.1274 13.0016 33.1123 11.452 33.037C9.90381 32.9618 8.8499 32.7088 7.92247 32.3368C6.9519 31.9596 6.07273 31.367 5.34659 30.6007C4.60727 29.8481 4.03529 28.9375 3.67052 27.9324C3.31001 26.9732 3.06725 25.8801 2.99457 24.2764C2.92625 22.6712 2.90735 22.1608 2.90735 18.0696C2.90735 13.9783 2.92189 13.4679 2.99457 11.8627C3.06725 10.2575 3.31001 9.16736 3.67052 8.20667C4.03428 7.20108 4.60639 6.29029 5.34659 5.53842C6.07294 4.77233 6.95205 4.1798 7.92247 3.80226C8.8499 3.42882 9.90235 3.17735 11.452 3.10207C13.0016 3.03129 13.4943 3.01172 17.4439 3.01172ZM17.4439 10.5406C15.5163 10.5406 13.6675 11.3339 12.3045 12.7458C10.9414 14.1578 10.1756 16.0728 10.1756 18.0696C10.1756 20.0663 10.9414 21.9814 12.3045 23.3933C13.6675 24.8052 15.5163 25.5985 17.4439 25.5985C19.3716 25.5985 21.2203 24.8052 22.5834 23.3933C23.9465 21.9814 24.7122 20.0663 24.7122 18.0696C24.7122 16.0728 23.9465 14.1578 22.5834 12.7458C21.2203 11.3339 19.3716 10.5406 17.4439 10.5406ZM26.8927 10.1642C26.8927 9.66499 26.7013 9.18624 26.3605 8.83325C26.0197 8.48027 25.5576 8.28196 25.0756 8.28196C24.5937 8.28196 24.1315 8.48027 23.7908 8.83325C23.45 9.18624 23.2586 9.66499 23.2586 10.1642C23.2586 10.6634 23.45 11.1421 23.7908 11.4951C24.1315 11.8481 24.5937 12.0464 25.0756 12.0464C25.5576 12.0464 26.0197 11.8481 26.3605 11.4951C26.7013 11.1421 26.8927 10.6634 26.8927 10.1642ZM17.4439 13.5522C18.6005 13.5522 19.7098 14.0281 20.5276 14.8753C21.3454 15.7225 21.8049 16.8715 21.8049 18.0696C21.8049 19.2676 21.3454 20.4166 20.5276 21.2638C19.7098 22.111 18.6005 22.5869 17.4439 22.5869C16.2873 22.5869 15.1781 22.111 14.3603 21.2638C13.5424 20.4166 13.083 19.2676 13.083 18.0696C13.083 16.8715 13.5424 15.7225 14.3603 14.8753C15.1781 14.0281 16.2873 13.5522 17.4439 13.5522Z" fill="black"/>
</g>
<defs>
<clipPath id="clip0_512_215">
<rect width="34.8878" height="36.1388" fill="white"/>
</clipPath>
</defs>
</svg>
