<svg width="12" height="12" viewBox="0 0 12 12" fill="none" xmlns="http://www.w3.org/2000/svg">
<path d="M6 10.4999C5.36845 9.96121 4.7831 9.37066 4.25 8.73441C3.45 7.77891 2.5 6.35591 2.5 4.9999C2.49929 3.58368 3.35213 2.3066 4.66054 1.7646C5.96895 1.2226 7.47505 1.52252 8.476 2.5244C9.13425 3.17971 9.50295 4.0711 9.5 4.9999C9.5 6.35591 8.55 7.77891 7.75 8.73441C7.2169 9.37066 6.63155 9.96121 6 10.4999ZM6 3.4999C5.4641 3.4999 4.96891 3.7858 4.70097 4.2499C4.43302 4.714 4.43302 5.28581 4.70097 5.74991C4.96891 6.21401 5.4641 6.49991 6 6.49991C6.82845 6.49991 7.5 5.82831 7.5 4.9999C7.5 4.17147 6.82845 3.4999 6 3.4999Z" fill="#F8F8F8"/>
</svg>
