<svg width="31" height="23" viewBox="0 0 31 23" fill="none" xmlns="http://www.w3.org/2000/svg">
<path d="M0 0.447998L3.69457 0.447998L4.51409 15.5418H4.66188L5.58888 0.447998L9.1894 0.447998L6.79801 22.7401H2.40483L0 0.447998Z" fill="#D40303"/>
<path d="M10.6737 0.447998L16.7731 0.447998V3.35683L14.4892 3.35683L14.4892 9.04046L16.7731 9.04046L16.7731 11.9761L14.4892 11.9761L14.4892 19.8045H16.7731V22.7401L10.6737 22.7401L10.6737 0.447998Z" fill="#D40303"/>
<path d="M18.8754 0.447998L22.6908 0.447998L22.6908 19.8045L23.6273 22.7401H17.9963L18.8754 19.8045L18.8754 0.447998Z" fill="#D40303"/>
<path d="M24.9006 0.447998L28.7161 0.447998L28.7161 19.8045H31V22.7401H24.9006L24.9006 0.447998Z" fill="#D40303"/>
<path d="M18.8754 0.447998L22.6908 0.447998L22.6908 19.8045L23.6273 22.7401H17.9963L18.8754 19.8045L18.8754 0.447998Z" fill="#D40303"/>
</svg>
