<svg width="12" height="13" viewBox="0 0 12 13" fill="none" xmlns="http://www.w3.org/2000/svg">
<path d="M4.38458 8.82071C4.38458 9.32172 4.06073 9.72834 3.66171 9.72834C3.26269 9.72834 2.93884 9.32172 2.93884 8.82071C2.93884 8.3197 3.26269 7.91309 3.66171 7.91309C4.06073 7.91309 4.38458 8.3197 4.38458 8.82071Z" fill="#F8F8F8"/>
<path d="M6.55315 8.82071C6.55315 9.32172 6.22931 9.72834 5.83029 9.72834C5.43127 9.72834 5.10742 9.32172 5.10742 8.82071C5.10742 8.3197 5.43127 7.91309 5.83029 7.91309C6.22931 7.91309 6.55315 8.3197 6.55315 8.82071Z" fill="#F8F8F8"/>
<path d="M8.7218 8.82071C8.7218 9.32172 8.39795 9.72834 7.99893 9.72834C7.59991 9.72834 7.27606 9.32172 7.27606 8.82071C7.27606 8.3197 7.59991 7.91309 7.99893 7.91309C8.39795 7.91309 8.7218 8.3197 8.7218 8.82071Z" fill="#F8F8F8"/>
<rect x="0.547485" y="5.68994" width="10.5659" height="6.26101" rx="3.13051" stroke="#F8F8F8"/>
<path d="M3.67981 3.30225C3.68006 2.1148 4.64271 1.15192 5.8302 1.15186C7.01774 1.15186 7.98034 2.11476 7.98059 3.30225L7.98059 5.29541L3.67981 5.29541L3.67981 3.30225Z" stroke="#F8F8F8"/>
</svg>
