<svg width="15" height="14" viewBox="0 0 15 14" fill="none" xmlns="http://www.w3.org/2000/svg">
<path d="M5.625 9.69214C5.625 10.2866 5.205 10.769 4.6875 10.769C4.17 10.769 3.75 10.2866 3.75 9.69214C3.75 9.09769 4.17 8.61523 4.6875 8.61523C5.205 8.61523 5.625 9.09769 5.625 9.69214Z" fill="#F8F8F8"/>
<path d="M8.4375 9.69214C8.4375 10.2866 8.0175 10.769 7.5 10.769C6.9825 10.769 6.5625 10.2866 6.5625 9.69214C6.5625 9.09769 6.9825 8.61523 7.5 8.61523C8.0175 8.61523 8.4375 9.09769 8.4375 9.69214Z" fill="#F8F8F8"/>
<path d="M11.25 9.69214C11.25 10.2866 10.83 10.769 10.3125 10.769C9.795 10.769 9.375 10.2866 9.375 9.69214C9.375 9.09769 9.795 8.61523 10.3125 8.61523C10.83 8.61523 11.25 9.09769 11.25 9.69214Z" fill="#F8F8F8"/>
<rect x="0.5" y="5.88379" width="14" height="7.61525" rx="3.80763" stroke="#F8F8F8"/>
<path d="M4.5625 3.4375C4.56254 1.8152 5.87769 0.5 7.5 0.5C9.12231 0.5 10.4375 1.8152 10.4375 3.4375V5.60254L4.5625 5.60254L4.5625 3.4375Z" stroke="#F8F8F8"/>
</svg>
