<svg width="16" height="10" viewBox="0 0 16 10" fill="none" xmlns="http://www.w3.org/2000/svg">
<path d="M15.7714 4.53488C14.1714 1.74419 11.2 0 8 0C4.8 0 1.82857 1.74419 0.228571 4.53488L0 5L0.228571 5.46512C1.82857 8.25581 4.8 10 8 10C11.2 10 14.1714 8.25581 15.7714 5.46512L16 5L15.7714 4.53488ZM8 8.25581C5.6 8.25581 3.42857 6.97674 2.05714 5C3.08571 3.37209 4.68571 2.32558 6.51429 1.97674C5.71429 2.44186 5.14286 3.37209 5.14286 4.4186C5.14286 6.04651 6.4 7.32558 8 7.32558C9.6 7.32558 10.8571 6.04651 10.8571 4.4186C10.8571 3.37209 10.2857 2.44186 9.48571 1.97674C11.3143 2.32558 12.9143 3.48837 13.9429 5C12.5714 6.97674 10.4 8.25581 8 8.25581Z" fill="#F8F8F8"/>
</svg>
