<svg width="14" height="14" viewBox="0 0 14 14" fill="none" xmlns="http://www.w3.org/2000/svg">
<path d="M12.95 6.6498C11.725 4.5498 9.45 3.2373 7 3.2373C4.55 3.2373 2.275 4.5498 1.05 6.6498L0.875 6.9998L1.05 7.3498C2.275 9.4498 4.55 10.7623 7 10.7623C9.45 10.7623 11.725 9.4498 12.95 7.3498L13.125 6.9998L12.95 6.6498ZM7 9.44981C5.1625 9.44981 3.5 8.4873 2.45 6.9998C3.2375 5.7748 4.4625 4.9873 5.8625 4.7248C5.25 5.0748 4.8125 5.7748 4.8125 6.5623C4.8125 7.7873 5.775 8.7498 7 8.7498C8.225 8.7498 9.1875 7.7873 9.1875 6.5623C9.1875 5.7748 8.75 5.0748 8.1375 4.7248C9.5375 4.9873 10.7625 5.8623 11.55 6.9998C10.5 8.4873 8.8375 9.44981 7 9.44981Z" fill="#F8F8F8"/>
</svg>
