<svg width="40" height="40" viewBox="0 0 40 40" fill="none" xmlns="http://www.w3.org/2000/svg">
<path d="M3.33334 24.9314V15.0688C3.33334 14.1104 4.07954 13.3334 5.00001 13.3334H10.9763C11.4183 13.3334 11.8423 13.1506 12.1548 12.8251L17.1548 7.17851C18.2048 6.08528 20 6.85955 20 8.40561V31.5946C20 33.1514 18.1833 33.9207 17.1398 32.8057L12.1573 27.1909C11.8436 26.8557 11.4132 26.6667 10.9637 26.6667H5.00001C4.07954 26.6667 3.33334 25.8897 3.33334 24.9314Z" fill="#D40303" stroke="#D40303" stroke-width="2" stroke-linecap="round" stroke-linejoin="round"/>
<path d="M26.6667 14.1667C28.8888 17.1297 28.8888 22.8704 26.6667 25.8334" stroke="#D40303" stroke-width="2" stroke-linecap="round" stroke-linejoin="round"/>
<path d="M31.6667 8.33325C38.3132 14.6805 38.3535 25.3618 31.6667 31.6666" stroke="#D40303" stroke-width="2" stroke-linecap="round" stroke-linejoin="round"/>
</svg>
