<svg width="33" height="27" viewBox="0 0 33 27" fill="none" xmlns="http://www.w3.org/2000/svg">
<path d="M31 2.15868C29.55 2.86172 28.129 3.14724 26.65 3.5791C25.0246 1.76412 22.6147 1.66369 20.299 2.52168C17.9834 3.37967 16.4667 5.4773 16.5 7.8834V9.31817C11.7948 9.43726 7.60425 7.31667 4.9 3.5791C4.9 3.5791 -1.1639 14.2437 10.7 19.3615C7.9856 21.1507 5.27845 22.3573 2 22.2311C6.7966 24.818 12.0239 25.7075 16.5493 24.4076C21.7403 22.9155 26.0062 19.066 27.6433 13.2996C28.1316 11.5459 28.3741 9.73405 28.3639 7.91497C28.361 7.55771 30.5534 3.93779 31 2.15725V2.15868Z" stroke="black" stroke-width="3" stroke-linecap="round" stroke-linejoin="round"/>
</svg>
