<svg width="20" height="20" viewBox="0 0 20 20" fill="none" xmlns="http://www.w3.org/2000/svg">
<g clip-path="url(#clip0_507_52)">
<path d="M10.0008 0.3125C4.47619 0.3125 0 4.64844 0 10C0 15.3516 4.47619 19.6875 10.0008 19.6875C15.5255 19.6875 20.0017 15.3516 20.0017 10C20.0017 4.64844 15.5255 0.3125 10.0008 0.3125ZM10.0008 4.0625C11.9607 4.0625 13.5495 5.60156 13.5495 7.5C13.5495 9.39844 11.9607 10.9375 10.0008 10.9375C8.041 10.9375 6.45216 9.39844 6.45216 7.5C6.45216 5.60156 8.041 4.0625 10.0008 4.0625ZM10.0008 17.5C7.63371 17.5 5.51256 16.4609 4.09309 14.8359C4.85122 13.4531 6.33521 12.5 8.0652 12.5C8.16198 12.5 8.25876 12.5156 8.35151 12.543C8.87575 12.707 9.42418 12.8125 10.0008 12.8125C10.5775 12.8125 11.13 12.707 11.6502 12.543C11.7429 12.5156 11.8397 12.5 11.9365 12.5C13.6665 12.5 15.1505 13.4531 15.9086 14.8359C14.4891 16.4609 12.368 17.5 10.0008 17.5Z" fill="white"/>
</g>
<defs>
<clipPath id="clip0_507_52">
<rect width="20.0017" height="20" fill="white"/>
</clipPath>
</defs>
</svg>
