<svg width="39" height="28" viewBox="0 0 39 28" fill="none" xmlns="http://www.w3.org/2000/svg">
<path d="M0 0L4.64801 0L5.67902 18.8618H5.86494L7.03117 0L11.5609 0L8.55234 27.8571H3.02543L0 0Z" fill="black"/>
<path d="M13.4282 0L21.1016 0V3.635L18.2283 3.635V10.7375H21.1016L21.1016 14.406H18.2283V24.1886H21.1016V27.8571H13.4282L13.4282 0Z" fill="black"/>
<path d="M23.7464 0L28.5465 0L28.5465 24.1886L29.7247 27.8571H22.6404L23.7464 24.1886L23.7464 0Z" fill="black"/>
<path d="M31.3266 0L36.1267 0L36.1267 24.1886H39V27.8571L31.3266 27.8571L31.3266 0Z" fill="black"/>
<path d="M23.7464 0L28.5465 0L28.5465 24.1886L29.7247 27.8571H22.6404L23.7464 24.1886L23.7464 0Z" fill="black"/>
</svg>
